<?xml version="1.0" encoding="utf-8"?>
<!-- Generator: Adobe Illustrator 23.0.6, SVG Export Plug-In . SVG Version: 6.00 Build 0)  -->
<svg version="1.1" id="Calque_1" xmlns="http://www.w3.org/2000/svg" xmlns:xlink="http://www.w3.org/1999/xlink" x="0px" y="0px"
	 viewBox="0 0 512 512" style="enable-background:new 0 0 512 512;" xml:space="preserve">
<g>
	<path d="M411.2,208.2c0,3.5,2.9,6.3,6.3,6.3c3.5,0,6.3-2.7,6.3-6.3c0-3.4-2.7-6.2-6.3-6.2C414.1,202.1,411.2,204.8,411.2,208.2
		 M406.7,183.8c0,3.4,2.7,6.3,6.3,6.3c3.4,0,6.3-2.9,6.3-6.3c0-3.5-2.9-6.3-6.3-6.3C409.5,177.4,406.7,180.3,406.7,183.8
		 M433.5,158.9c0,3.5,2.7,6.3,6.2,6.3c3.5,0,6.3-2.7,6.3-6.3c0-3.4-2.7-6.2-6.3-6.2C436.2,152.8,433.5,155.5,433.5,158.9
		 M433.5,183.8c0,3.4,2.7,6.3,6.2,6.3c3.5,0,6.3-2.9,6.3-6.3c0-3.5-2.7-6.3-6.3-6.3C436.2,177.4,433.5,180.3,433.5,183.8
		 M433.5,208.2c0,3.5,2.7,6.3,6.2,6.3c3.5,0,6.3-2.7,6.3-6.3c0-3.4-2.7-6.2-6.3-6.2C436.2,202.1,433.5,204.8,433.5,208.2
		 M433.5,232.4c0,3.5,2.7,6.3,6.2,6.3c3.5,0,6.3-2.7,6.3-6.3c0-3.4-2.7-6.3-6.3-6.3C436.2,226.1,433.5,229,433.5,232.4 M384.1,158.9
		c0,3.5,2.7,6.3,6.3,6.3c3.4,0,6.3-2.7,6.3-6.3c0-3.4-2.9-6.2-6.3-6.2C386.9,152.8,384.1,155.5,384.1,158.9 M384.1,183.8
		c0,3.4,2.7,6.3,6.3,6.3c3.4,0,6.3-2.9,6.3-6.3c0-3.5-2.9-6.3-6.3-6.3C386.9,177.4,384.1,180.3,384.1,183.8 M384.1,208.2
		c0,3.5,2.7,6.3,6.3,6.3c3.4,0,6.3-2.7,6.3-6.3c0-3.4-2.9-6.2-6.3-6.2C386.9,202.1,384.1,204.8,384.1,208.2 M384.1,232.4
		c0,3.5,2.7,6.3,6.3,6.3c3.4,0,6.3-2.7,6.3-6.3c0-3.4-2.9-6.3-6.3-6.3C386.9,226.1,384.1,229,384.1,232.4 M333.6,232.4
		c0,3.5,2.9,6.3,6.3,6.3c3.5,0,6.3-2.7,6.3-6.3c0-3.4-2.7-6.3-6.3-6.3C336.6,226.1,333.6,229,333.6,232.4 M271.1,232.4
		c0,3.5,2.7,6.3,6.3,6.3c3.4,0,6.3-2.7,6.3-6.3c0-3.4-2.9-6.3-6.3-6.3C273.9,226.1,271.1,229,271.1,232.4 M323.2,207.8
		c0,3.4,2.7,6.3,6.3,6.3c3.4,0,6.3-2.9,6.3-6.3s-2.9-6.3-6.3-6.3C326.1,201.5,323.2,204.4,323.2,207.8 M281.5,207.8
		c0,3.4,2.9,6.3,6.3,6.3c3.5,0,6.3-2.9,6.3-6.3s-2.7-6.3-6.3-6.3C284.4,201.5,281.5,204.4,281.5,207.8 M312.9,183.3
		c0,3.4,2.7,6.3,6.2,6.3c3.5,0,6.3-2.9,6.3-6.3c0-3.5-2.7-6.3-6.3-6.3C315.6,176.9,312.9,179.7,312.9,183.3 M292,183.3
		c0,3.4,2.7,6.3,6.3,6.3c3.4,0,6.2-2.9,6.2-6.3c0-3.5-2.7-6.3-6.2-6.3C294.7,176.9,292,179.7,292,183.3 M302.5,220.2
		c0,3.4,2.7,6.3,6.2,6.3c3.5,0,6.3-2.9,6.3-6.3c0-3.5-2.7-6.3-6.3-6.3C305.2,213.9,302.5,216.6,302.5,220.2 M302.5,158.7
		c0,3.4,2.7,6.3,6.2,6.3c3.5,0,6.3-2.9,6.3-6.3c0-3.5-2.7-6.3-6.3-6.3C305.2,152.4,302.5,155.1,302.5,158.7 M220.6,232.4
		c0,3.5,2.7,6.3,6.2,6.3c3.5,0,6.3-2.7,6.3-6.3c0-3.4-2.7-6.3-6.3-6.3C223.3,226.1,220.6,229,220.6,232.4 M195.9,232.4
		c0,3.5,2.9,6.3,6.3,6.3s6.3-2.7,6.3-6.3c0-3.4-2.9-6.3-6.3-6.3S195.9,229,195.9,232.4 M171.4,159.1c0,3.4,2.7,6.3,6.3,6.3
		c3.4,0,6.3-2.9,6.3-6.3c0-3.4-2.9-6.3-6.3-6.3C174.1,152.8,171.4,155.6,171.4,159.1 M171.5,183.5c0,3.4,2.7,6.3,6.3,6.3
		c3.4,0,6.2-2.9,6.2-6.3c0-3.4-2.7-6.3-6.2-6.3C174.3,177.2,171.5,180.1,171.5,183.5 M171.5,208c0,3.5,2.7,6.3,6.3,6.3
		c3.4,0,6.2-2.7,6.2-6.3c0-3.4-2.7-6.3-6.2-6.3C174.3,201.6,171.5,204.5,171.5,208 M171.5,232.4c0,3.5,2.7,6.3,6.3,6.3
		c3.4,0,6.2-2.7,6.2-6.3c0-3.4-2.7-6.3-6.2-6.3C174.3,226.1,171.5,229,171.5,232.4 M114.7,168.2c0,3.5,2.7,6.3,6.3,6.3
		c3.4,0,6.3-2.7,6.3-6.3c0-3.4-2.9-6.2-6.3-6.2C117.4,162.1,114.7,164.8,114.7,168.2 M114.7,190.2c0,3.5,2.7,6.3,6.3,6.3
		c3.4,0,6.3-2.7,6.3-6.3c0-3.4-2.9-6.3-6.3-6.3C117.4,183.9,114.7,186.8,114.7,190.2 M93,195.7c0,3.5,2.9,6.3,6.3,6.3
		c3.5,0,6.3-2.7,6.3-6.3c0-3.4-2.7-6.3-6.3-6.3C95.9,189.4,93,192.3,93,195.7 M93,159.1c0,3.4,2.9,6.3,6.3,6.3
		c3.5,0,6.3-2.9,6.3-6.3s-2.7-6.3-6.3-6.3C95.9,152.8,93,155.6,93,159.1 M72,159.1c0,3.4,2.7,6.3,6.3,6.3c3.4,0,6.3-2.9,6.3-6.3
		s-2.9-6.3-6.3-6.3C74.7,152.8,72,155.6,72,159.1 M72,183.5c0,3.5,2.7,6.3,6.3,6.3c3.4,0,6.3-2.7,6.3-6.3c0-3.4-2.9-6.3-6.3-6.3
		C74.7,177.2,72,180.1,72,183.5 M72,208c0,3.5,2.7,6.3,6.3,6.3c3.4,0,6.3-2.7,6.3-6.3c0-3.4-2.9-6.3-6.3-6.3
		C74.7,201.6,72,204.5,72,208 M72,232.4c0,3.5,2.7,6.3,6.3,6.3c3.4,0,6.3-2.7,6.3-6.3c0-3.4-2.9-6.3-6.3-6.3
		C74.7,226.1,72,229,72,232.4 M486.9,352.5c0,3.5,2.9,6.4,6.4,6.4c3.5,0,6.4-2.7,6.4-6.4c0-3.4-2.7-6.4-6.4-6.4
		C489.8,346.1,486.9,349.1,486.9,352.5 M486.9,278.7c0,3.5,2.9,6.4,6.4,6.4c3.5,0,6.4-2.7,6.4-6.4c0-3.4-2.7-6.2-6.4-6.2
		C489.8,272.5,486.9,275.3,486.9,278.7 M462.7,352.5c0,3.5,2.9,6.4,6.4,6.4c3.5,0,6.4-2.7,6.4-6.4c0-3.4-2.7-6.4-6.4-6.4
		C465.6,346.1,462.7,349.1,462.7,352.5 M462.7,316c0,3.4,2.9,6.4,6.4,6.4c3.5,0,6.4-2.9,6.4-6.4c0-3.5-2.7-6.4-6.4-6.4
		C465.6,309.6,462.7,312.3,462.7,316 M462.7,278.7c0,3.5,2.9,6.4,6.4,6.4c3.5,0,6.4-2.7,6.4-6.4c0-3.4-2.7-6.2-6.4-6.2
		C465.6,272.5,462.7,275.3,462.7,278.7 M438.9,278.7c0,3.5,2.7,6.4,6.4,6.4c3.4,0,6.4-2.7,6.4-6.4c0-3.4-2.9-6.2-6.4-6.2
		C441.6,272.5,438.9,275.3,438.9,278.7 M438.9,303.7c0,3.4,2.7,6.4,6.4,6.4c3.4,0,6.4-2.9,6.4-6.4c0-3.5-2.9-6.4-6.4-6.4
		C441.6,297.3,438.9,300.1,438.9,303.7 M438.9,328.2c0,3.4,2.7,6.4,6.4,6.4c3.4,0,6.4-2.9,6.4-6.4c0-3.5-2.9-6.4-6.4-6.4
		C441.6,321.9,438.9,324.6,438.9,328.2 M438.9,352.5c0,3.5,2.7,6.4,6.4,6.4c3.4,0,6.4-2.7,6.4-6.4c0-3.4-2.9-6.4-6.4-6.4
		C441.6,346.1,438.9,349.1,438.9,352.5 M380.8,352.5c0,3.5,2.7,6.4,6.4,6.4c3.4,0,6.4-2.7,6.4-6.4c0-3.4-2.9-6.4-6.4-6.4
		C383.5,346.1,380.8,349.1,380.8,352.5 M367.6,335.3c0,3.4,2.9,6.2,6.4,6.2c3.5,0,6.4-2.7,6.4-6.2c0-3.5-2.7-6.4-6.4-6.4
		C370.5,329,367.6,331.8,367.6,335.3 M374.9,288.1c0,3.5,2.7,6.4,6.4,6.4c3.4,0,6.4-2.7,6.4-6.4c0-3.4-2.9-6.2-6.4-6.2
		C377.6,281.9,374.9,284.6,374.9,288.1 M374.9,310.1c0,3.5,2.7,6.4,6.4,6.4c3.4,0,6.4-2.7,6.4-6.4c0-3.4-2.9-6.4-6.4-6.4
		C377.6,303.8,374.9,306.7,374.9,310.1 M353.1,315.7c0,3.5,2.9,6.4,6.4,6.4c3.5,0,6.4-2.7,6.4-6.4c0-3.4-2.7-6.4-6.4-6.4
		C356,309.3,353.1,312.2,353.1,315.7 M353.1,278.8c0,3.4,2.9,6.4,6.4,6.4c3.5,0,6.4-2.9,6.4-6.4c0-3.4-2.7-6.4-6.4-6.4
		C356,272.5,353.1,275.4,353.1,278.8 M332,278.8c0,3.4,2.7,6.4,6.4,6.4c3.4,0,6.4-2.9,6.4-6.4c0-3.4-2.9-6.4-6.4-6.4
		C334.7,272.5,332,275.4,332,278.8 M332,303.4c0,3.5,2.7,6.4,6.4,6.4c3.4,0,6.4-2.7,6.4-6.4c0-3.4-2.9-6.4-6.4-6.4
		C334.7,297.1,332,300,332,303.4 M332,328c0,3.5,2.7,6.4,6.4,6.4c3.4,0,6.4-2.7,6.4-6.4c0-3.4-2.9-6.4-6.4-6.4
		C334.7,321.6,332,324.5,332,328 M332,352.5c0,3.5,2.7,6.4,6.4,6.4c3.4,0,6.4-2.7,6.4-6.4c0-3.4-2.9-6.4-6.4-6.4
		C334.7,346.1,332,349.1,332,352.5 M265.9,288.1c0,3.5,2.9,6.4,6.4,6.4c3.4,0,6.4-2.7,6.4-6.4c0-3.4-2.9-6.2-6.4-6.2
		C268.8,281.9,265.9,284.6,265.9,288.1 M265.9,310.1c0,3.5,2.9,6.4,6.4,6.4c3.4,0,6.4-2.7,6.4-6.4c0-3.4-2.9-6.4-6.4-6.4
		C268.8,303.8,265.9,306.7,265.9,310.1 M273,330.7c0,3.4,2.7,6.4,6.4,6.4c3.4,0,6.4-2.9,6.4-6.4c0-3.5-2.9-6.4-6.4-6.4
		C275.7,324.3,273,327.2,273,330.7 M265.9,350.7c0,3.5,2.9,6.4,6.4,6.4c3.4,0,6.4-2.7,6.4-6.4c0-3.4-2.9-6.4-6.4-6.4
		C268.8,344.5,265.9,347.4,265.9,350.7 M244.2,352.5c0,3.5,2.9,6.4,6.4,6.4c3.5,0,6.4-2.7,6.4-6.4c0-3.4-2.7-6.4-6.4-6.4
		C247.1,346.1,244.2,349.1,244.2,352.5 M244.2,315.7c0,3.5,2.9,6.4,6.4,6.4c3.5,0,6.4-2.7,6.4-6.4c0-3.4-2.7-6.4-6.4-6.4
		C247.1,309.3,244.2,312.2,244.2,315.7 M244.2,278.8c0,3.4,2.9,6.4,6.4,6.4c3.5,0,6.4-2.9,6.4-6.4c0-3.4-2.7-6.4-6.4-6.4
		C247.1,272.5,244.2,275.4,244.2,278.8 M223,278.8c0,3.4,2.7,6.4,6.4,6.4c3.4,0,6.4-2.9,6.4-6.4c0-3.4-2.9-6.4-6.4-6.4
		C225.9,272.5,223,275.4,223,278.8 M223,303.4c0,3.5,2.7,6.4,6.4,6.4c3.4,0,6.4-2.7,6.4-6.4c0-3.4-2.9-6.4-6.4-6.4
		C225.9,297.1,223,300,223,303.4 M223,328c0,3.5,2.7,6.4,6.4,6.4c3.4,0,6.4-2.7,6.4-6.4c0-3.4-2.9-6.4-6.4-6.4
		C225.9,321.6,223,324.5,223,328 M223,352.5c0,3.5,2.7,6.4,6.4,6.4c3.4,0,6.4-2.7,6.4-6.4c0-3.4-2.9-6.4-6.4-6.4
		C225.9,346.1,223,349.1,223,352.5 M162.2,278.8c0,3.4,2.7,6.4,6.4,6.4c3.4,0,6.4-2.9,6.4-6.4c0-3.4-2.9-6.4-6.4-6.4
		C164.9,272.5,162.2,275.4,162.2,278.8 M162.2,352.5c0,3.5,2.7,6.4,6.4,6.4c3.4,0,6.4-2.7,6.4-6.4c0-3.4-2.9-6.4-6.4-6.4
		C164.9,346.1,162.2,349.1,162.2,352.5 M114.5,278.8c0,3.4,2.7,6.4,6.4,6.4c3.4,0,6.4-2.9,6.4-6.4c0-3.4-2.9-6.4-6.4-6.4
		C117.3,272.5,114.5,275.4,114.5,278.8 M114.5,352.5c0,3.5,2.7,6.4,6.4,6.4c3.4,0,6.4-2.7,6.4-6.4c0-3.4-2.9-6.4-6.4-6.4
		C117.3,346.1,114.5,349.1,114.5,352.5 M138.3,278.8c0,3.4,2.9,6.4,6.4,6.4c3.5,0,6.4-2.9,6.4-6.4c0-3.4-2.7-6.4-6.4-6.4
		C141.2,272.5,138.3,275.4,138.3,278.8 M138.3,303.4c0,3.4,2.9,6.4,6.4,6.4c3.5,0,6.4-2.9,6.4-6.4c0-3.4-2.7-6.4-6.4-6.4
		C141.2,297.1,138.3,300,138.3,303.4 M138.3,328c0,3.5,2.9,6.4,6.4,6.4c3.5,0,6.4-2.7,6.4-6.4c0-3.4-2.7-6.4-6.4-6.4
		C141.2,321.6,138.3,324.5,138.3,328 M138.3,352.5c0,3.5,2.9,6.4,6.4,6.4c3.5,0,6.4-2.7,6.4-6.4c0-3.4-2.7-6.4-6.4-6.4
		C141.2,346.1,138.3,349.1,138.3,352.5 M63.8,352.5c0,3.5,2.7,6.4,6.2,6.4c3.5,0,6.4-2.7,6.4-6.4c0-3.4-2.7-6.4-6.4-6.4
		C66.5,346.1,63.8,349.1,63.8,352.5 M39,352.5c0,3.5,2.9,6.4,6.4,6.4c3.4,0,6.4-2.7,6.4-6.4c0-3.4-2.9-6.4-6.4-6.4
		C41.9,346.1,39,349.1,39,352.5 M14.3,278.8c0,3.4,2.7,6.4,6.4,6.4c3.4,0,6.4-2.9,6.4-6.4c0-3.4-2.9-6.4-6.4-6.4
		C17.1,272.5,14.3,275.4,14.3,278.8 M14.5,303.4c0,3.4,2.7,6.4,6.4,6.4c3.4,0,6.2-2.9,6.2-6.4c0-3.4-2.7-6.4-6.2-6.4
		C17.2,297.1,14.5,300,14.5,303.4 M14.5,328c0,3.5,2.7,6.4,6.4,6.4c3.4,0,6.2-2.7,6.2-6.4c0-3.4-2.7-6.4-6.2-6.4
		C17.2,321.6,14.5,324.5,14.5,328 M14.5,352.5c0,3.5,2.7,6.4,6.4,6.4c3.4,0,6.2-2.7,6.2-6.4c0-3.4-2.7-6.4-6.2-6.4
		C17.2,346.1,14.5,349.1,14.5,352.5"/>
</g>
</svg>
